<mxfile host="app.diagrams.net" agent="Mozilla/5.0 (Windows NT 10.0; Win64; x64) AppleWebKit/537.36 (KHTML, like Gecko) Chrome/136.0.0.0 Safari/537.36" version="27.0.5">
  <diagram name="Page-1" id="TdNFC6dyx0LUao1MvASP">
    <mxGraphModel dx="1213" dy="2846" grid="1" gridSize="10" guides="1" tooltips="1" connect="1" arrows="0" fold="1" page="1" pageScale="1" pageWidth="850" pageHeight="1100" math="0" shadow="0">
      <root>
        <mxCell id="0" />
        <mxCell id="1" parent="0" />
        <mxCell id="mpC0bAIoU8zlxZdmQgjL-28" value="Pelanggan" style="swimlane;whiteSpace=wrap;html=1;" vertex="1" parent="1">
          <mxGeometry x="5" y="-2160" width="280" height="1110" as="geometry" />
        </mxCell>
        <mxCell id="mpC0bAIoU8zlxZdmQgjL-32" value="Mulai" style="ellipse;whiteSpace=wrap;html=1;aspect=fixed;" vertex="1" parent="mpC0bAIoU8zlxZdmQgjL-28">
          <mxGeometry x="100" y="40" width="80" height="80" as="geometry" />
        </mxCell>
        <mxCell id="mpC0bAIoU8zlxZdmQgjL-33" value="Mengunjungi Website" style="rounded=0;whiteSpace=wrap;html=1;" vertex="1" parent="mpC0bAIoU8zlxZdmQgjL-28">
          <mxGeometry x="50" y="170" width="180" height="60" as="geometry" />
        </mxCell>
        <mxCell id="mpC0bAIoU8zlxZdmQgjL-34" value="" style="endArrow=classic;html=1;rounded=0;exitX=0.5;exitY=1;exitDx=0;exitDy=0;entryX=0.5;entryY=0;entryDx=0;entryDy=0;" edge="1" parent="mpC0bAIoU8zlxZdmQgjL-28" source="mpC0bAIoU8zlxZdmQgjL-32" target="mpC0bAIoU8zlxZdmQgjL-33">
          <mxGeometry width="50" height="50" relative="1" as="geometry">
            <mxPoint x="395" y="190" as="sourcePoint" />
            <mxPoint x="445" y="140" as="targetPoint" />
          </mxGeometry>
        </mxCell>
        <mxCell id="mpC0bAIoU8zlxZdmQgjL-38" value="" style="endArrow=classic;html=1;rounded=0;entryX=0;entryY=0.5;entryDx=0;entryDy=0;" edge="1" parent="mpC0bAIoU8zlxZdmQgjL-28" target="mpC0bAIoU8zlxZdmQgjL-36">
          <mxGeometry width="50" height="50" relative="1" as="geometry">
            <mxPoint x="230" y="200" as="sourcePoint" />
            <mxPoint x="280" y="150" as="targetPoint" />
          </mxGeometry>
        </mxCell>
        <mxCell id="mpC0bAIoU8zlxZdmQgjL-41" value="Menampilkan Website" style="rounded=0;whiteSpace=wrap;html=1;" vertex="1" parent="mpC0bAIoU8zlxZdmQgjL-28">
          <mxGeometry x="50" y="280" width="180" height="60" as="geometry" />
        </mxCell>
        <mxCell id="mpC0bAIoU8zlxZdmQgjL-48" value="Login" style="rhombus;whiteSpace=wrap;html=1;" vertex="1" parent="mpC0bAIoU8zlxZdmQgjL-28">
          <mxGeometry x="85" y="390" width="110" height="110" as="geometry" />
        </mxCell>
        <mxCell id="mpC0bAIoU8zlxZdmQgjL-49" value="" style="endArrow=classic;html=1;rounded=0;exitX=0.5;exitY=1;exitDx=0;exitDy=0;entryX=0.5;entryY=0;entryDx=0;entryDy=0;" edge="1" parent="mpC0bAIoU8zlxZdmQgjL-28" source="mpC0bAIoU8zlxZdmQgjL-41" target="mpC0bAIoU8zlxZdmQgjL-48">
          <mxGeometry width="50" height="50" relative="1" as="geometry">
            <mxPoint x="395" y="420" as="sourcePoint" />
            <mxPoint x="445" y="370" as="targetPoint" />
          </mxGeometry>
        </mxCell>
        <mxCell id="mpC0bAIoU8zlxZdmQgjL-56" value="Mengisi Form Register" style="rounded=0;whiteSpace=wrap;html=1;" vertex="1" parent="mpC0bAIoU8zlxZdmQgjL-28">
          <mxGeometry x="50" y="550" width="180" height="60" as="geometry" />
        </mxCell>
        <mxCell id="mpC0bAIoU8zlxZdmQgjL-60" value="" style="endArrow=none;html=1;rounded=0;" edge="1" parent="mpC0bAIoU8zlxZdmQgjL-28">
          <mxGeometry width="50" height="50" relative="1" as="geometry">
            <mxPoint x="130" y="610" as="sourcePoint" />
            <mxPoint x="130" y="670" as="targetPoint" />
          </mxGeometry>
        </mxCell>
        <mxCell id="mpC0bAIoU8zlxZdmQgjL-61" value="" style="endArrow=classic;html=1;rounded=0;" edge="1" parent="mpC0bAIoU8zlxZdmQgjL-28">
          <mxGeometry width="50" height="50" relative="1" as="geometry">
            <mxPoint x="130" y="670" as="sourcePoint" />
            <mxPoint x="335" y="670" as="targetPoint" />
          </mxGeometry>
        </mxCell>
        <mxCell id="mpC0bAIoU8zlxZdmQgjL-65" value="" style="endArrow=classic;html=1;rounded=0;entryX=0.548;entryY=1.03;entryDx=0;entryDy=0;entryPerimeter=0;" edge="1" parent="mpC0bAIoU8zlxZdmQgjL-28" target="mpC0bAIoU8zlxZdmQgjL-56">
          <mxGeometry width="50" height="50" relative="1" as="geometry">
            <mxPoint x="149" y="640" as="sourcePoint" />
            <mxPoint x="195" y="590" as="targetPoint" />
          </mxGeometry>
        </mxCell>
        <mxCell id="mpC0bAIoU8zlxZdmQgjL-30" value="Sistem" style="swimlane;whiteSpace=wrap;html=1;" vertex="1" parent="1">
          <mxGeometry x="285" y="-2160" width="280" height="1110" as="geometry" />
        </mxCell>
        <mxCell id="mpC0bAIoU8zlxZdmQgjL-36" value="Memuat Data" style="rounded=0;whiteSpace=wrap;html=1;" vertex="1" parent="mpC0bAIoU8zlxZdmQgjL-30">
          <mxGeometry x="50" y="170" width="180" height="60" as="geometry" />
        </mxCell>
        <mxCell id="mpC0bAIoU8zlxZdmQgjL-37" value="Menampilkan Data" style="rounded=0;whiteSpace=wrap;html=1;" vertex="1" parent="mpC0bAIoU8zlxZdmQgjL-30">
          <mxGeometry x="50" y="280" width="180" height="60" as="geometry" />
        </mxCell>
        <mxCell id="mpC0bAIoU8zlxZdmQgjL-39" value="" style="endArrow=classic;html=1;rounded=0;exitX=0.5;exitY=1;exitDx=0;exitDy=0;entryX=0.5;entryY=0;entryDx=0;entryDy=0;" edge="1" parent="mpC0bAIoU8zlxZdmQgjL-30" source="mpC0bAIoU8zlxZdmQgjL-36" target="mpC0bAIoU8zlxZdmQgjL-37">
          <mxGeometry width="50" height="50" relative="1" as="geometry">
            <mxPoint x="115" y="190" as="sourcePoint" />
            <mxPoint x="165" y="140" as="targetPoint" />
          </mxGeometry>
        </mxCell>
        <mxCell id="mpC0bAIoU8zlxZdmQgjL-51" value="Menampilkan Register" style="rounded=0;whiteSpace=wrap;html=1;" vertex="1" parent="mpC0bAIoU8zlxZdmQgjL-30">
          <mxGeometry x="50" y="420" width="180" height="60" as="geometry" />
        </mxCell>
        <mxCell id="mpC0bAIoU8zlxZdmQgjL-52" value="" style="endArrow=classic;html=1;rounded=0;" edge="1" parent="mpC0bAIoU8zlxZdmQgjL-30">
          <mxGeometry width="50" height="50" relative="1" as="geometry">
            <mxPoint x="-85" y="445.5" as="sourcePoint" />
            <mxPoint x="45" y="445.5" as="targetPoint" />
          </mxGeometry>
        </mxCell>
        <mxCell id="mpC0bAIoU8zlxZdmQgjL-66" value="Belum Regist" style="edgeLabel;html=1;align=center;verticalAlign=middle;resizable=0;points=[];" vertex="1" connectable="0" parent="mpC0bAIoU8zlxZdmQgjL-52">
          <mxGeometry x="-0.3436" relative="1" as="geometry">
            <mxPoint as="offset" />
          </mxGeometry>
        </mxCell>
        <mxCell id="mpC0bAIoU8zlxZdmQgjL-58" value="" style="endArrow=classic;html=1;rounded=0;entryX=1;entryY=0.5;entryDx=0;entryDy=0;" edge="1" parent="mpC0bAIoU8zlxZdmQgjL-30" target="mpC0bAIoU8zlxZdmQgjL-56">
          <mxGeometry width="50" height="50" relative="1" as="geometry">
            <mxPoint x="135" y="580" as="sourcePoint" />
            <mxPoint x="-50" y="585" as="targetPoint" />
          </mxGeometry>
        </mxCell>
        <mxCell id="mpC0bAIoU8zlxZdmQgjL-62" value="Verifikasi Data" style="rhombus;whiteSpace=wrap;html=1;" vertex="1" parent="mpC0bAIoU8zlxZdmQgjL-30">
          <mxGeometry x="55" y="615" width="110" height="110" as="geometry" />
        </mxCell>
        <mxCell id="mpC0bAIoU8zlxZdmQgjL-63" value="" style="endArrow=none;html=1;rounded=0;exitX=0;exitY=0;exitDx=0;exitDy=0;" edge="1" parent="mpC0bAIoU8zlxZdmQgjL-30" source="mpC0bAIoU8zlxZdmQgjL-62">
          <mxGeometry width="50" height="50" relative="1" as="geometry">
            <mxPoint x="75" y="640" as="sourcePoint" />
            <mxPoint x="-130" y="640" as="targetPoint" />
          </mxGeometry>
        </mxCell>
        <mxCell id="mpC0bAIoU8zlxZdmQgjL-67" value="Verif Gagal" style="edgeLabel;html=1;align=center;verticalAlign=middle;resizable=0;points=[];" vertex="1" connectable="0" parent="mpC0bAIoU8zlxZdmQgjL-63">
          <mxGeometry x="0.1091" y="-1" relative="1" as="geometry">
            <mxPoint as="offset" />
          </mxGeometry>
        </mxCell>
        <mxCell id="mpC0bAIoU8zlxZdmQgjL-31" value="Admin" style="swimlane;whiteSpace=wrap;html=1;" vertex="1" parent="1">
          <mxGeometry x="565" y="-2160" width="280" height="1110" as="geometry" />
        </mxCell>
        <mxCell id="mpC0bAIoU8zlxZdmQgjL-69" value="" style="rounded=0;whiteSpace=wrap;html=1;" vertex="1" parent="mpC0bAIoU8zlxZdmQgjL-31">
          <mxGeometry x="65" y="640" width="180" height="60" as="geometry" />
        </mxCell>
        <mxCell id="mpC0bAIoU8zlxZdmQgjL-42" value="" style="endArrow=classic;html=1;rounded=0;exitX=0;exitY=0.5;exitDx=0;exitDy=0;entryX=1;entryY=0.5;entryDx=0;entryDy=0;" edge="1" parent="1" source="mpC0bAIoU8zlxZdmQgjL-37" target="mpC0bAIoU8zlxZdmQgjL-41">
          <mxGeometry width="50" height="50" relative="1" as="geometry">
            <mxPoint x="400" y="-1970" as="sourcePoint" />
            <mxPoint x="450" y="-2020" as="targetPoint" />
          </mxGeometry>
        </mxCell>
        <mxCell id="mpC0bAIoU8zlxZdmQgjL-57" value="" style="endArrow=none;html=1;rounded=0;exitX=0.464;exitY=1.019;exitDx=0;exitDy=0;exitPerimeter=0;" edge="1" parent="1" source="mpC0bAIoU8zlxZdmQgjL-51">
          <mxGeometry width="50" height="50" relative="1" as="geometry">
            <mxPoint x="400" y="-1600" as="sourcePoint" />
            <mxPoint x="420" y="-1580" as="targetPoint" />
          </mxGeometry>
        </mxCell>
        <mxCell id="mpC0bAIoU8zlxZdmQgjL-70" value="" style="endArrow=classic;html=1;rounded=0;exitX=1;exitY=0.5;exitDx=0;exitDy=0;entryX=0;entryY=0.5;entryDx=0;entryDy=0;" edge="1" parent="1" source="mpC0bAIoU8zlxZdmQgjL-62" target="mpC0bAIoU8zlxZdmQgjL-69">
          <mxGeometry width="50" height="50" relative="1" as="geometry">
            <mxPoint x="400" y="-1600" as="sourcePoint" />
            <mxPoint x="450" y="-1650" as="targetPoint" />
          </mxGeometry>
        </mxCell>
        <mxCell id="mpC0bAIoU8zlxZdmQgjL-71" value="Ya" style="edgeLabel;html=1;align=center;verticalAlign=middle;resizable=0;points=[];" vertex="1" connectable="0" parent="mpC0bAIoU8zlxZdmQgjL-70">
          <mxGeometry x="-0.2704" relative="1" as="geometry">
            <mxPoint as="offset" />
          </mxGeometry>
        </mxCell>
      </root>
    </mxGraphModel>
  </diagram>
</mxfile>
